<?xml version="1.0" encoding="utf-8"?>
<!-- Generator: Adobe Illustrator 22.1.0, SVG Export Plug-In . SVG Version: 6.00 Build 0)  -->
<svg version="1.1" id="Layer_1" xmlns="http://www.w3.org/2000/svg" xmlns:xlink="http://www.w3.org/1999/xlink" x="0px" y="0px"
	 viewBox="0 0 24 24" style="enable-background:new 0 0 24 24;" xml:space="preserve">
<style type="text/css">
	.st0{fill:#FFFFFF;}
</style>
<path class="st0" d="M19.2,17.4c-0.2-0.3-0.5-0.5-0.9-0.5c-0.3,0-0.6,0.1-0.8,0.3c-0.2,0.2-0.5,0.4-0.9,0.6
	c-0.3,0.2-0.7,0.4-1.2,0.6c-0.5,0.2-1.1,0.3-1.9,0.3c-0.8,0-1.5-0.1-2.1-0.4c-0.5-0.2-0.8-0.5-1.2-0.9L6,18.4l2.7-3.9
	c-0.2-0.7-0.3-1.6-0.3-2.5c0-1.1,0.1-2,0.3-2.8C9,8.3,9.3,7.6,9.7,7c0.4-0.6,1-1,1.6-1.3c0.7-0.3,1.4-0.5,2.3-0.5
	c0.7,0,1.2,0.1,1.7,0.2c0.5,0.2,0.9,0.3,1.2,0.5c0.3,0.2,0.6,0.4,0.9,0.5c0.2,0.2,0.5,0.2,0.7,0.2c0.3,0,0.5-0.1,0.6-0.2
	c0.1-0.1,0.3-0.3,0.4-0.4l1.3-1.8c-0.9-0.9-2-1.6-3.1-2.1c-1.2-0.5-2.5-0.7-4-0.7c-1.6,0-3,0.3-4.3,0.8C7.8,2.8,6.8,3.5,5.9,4.5
	C5.1,5.4,4.5,6.5,4,7.8C3.6,9.1,3.4,10.5,3.4,12c0,1.7,0.2,3.2,0.7,4.5c0.5,1.3,1.1,2.4,2,3.3c0.8,0.9,1.8,1.6,2.9,2.1
	c1.1,0.5,2.3,0.7,3.6,0.7c0.7,0,1.4-0.1,2.2-0.2c0.7-0.1,1.4-0.3,2.1-0.5c0.7-0.3,1.3-0.6,2-1c0.6-0.4,1.2-1,1.8-1.6L19.2,17.4z"/>
</svg>
