<?xml version="1.0" encoding="utf-8"?>
<!-- Generator: Adobe Illustrator 22.1.0, SVG Export Plug-In . SVG Version: 6.00 Build 0)  -->
<svg version="1.1" id="Layer_1" xmlns="http://www.w3.org/2000/svg" xmlns:xlink="http://www.w3.org/1999/xlink" x="0px" y="0px"
	 viewBox="0 0 162.7 30" style="enable-background:new 0 0 162.7 30;" xml:space="preserve">
<style type="text/css">
	.st0{fill:#FFFFFF;}
</style>
<g>
	<path class="st0" d="M18.4,29.7V0h4.9v11.4C24.1,10.6,25,10,26,9.6c1-0.5,2.1-0.7,3.4-0.7c1.1,0,2.1,0.2,3,0.6
		c0.9,0.4,1.6,0.9,2.2,1.6s1,1.5,1.3,2.5s0.4,2,0.4,3.1v13h-4.9v-13c0-1.2-0.3-2.2-0.9-2.9s-1.4-1-2.6-1c-0.9,0-1.6,0.2-2.4,0.6
		c-0.7,0.4-1.5,0.9-2.1,1.6v14.8h-5V29.7z"/>
	<path class="st0" d="M55.1,29.7h-2.2c-0.5,0-0.8-0.1-1.1-0.2s-0.5-0.4-0.6-0.8l-0.4-1.5c-0.5,0.5-1,0.9-1.5,1.2
		c-0.5,0.4-1,0.6-1.5,0.9c-0.5,0.2-1.1,0.4-1.7,0.5S44.8,30,44,30c-0.9,0-1.7-0.1-2.4-0.4c-0.7-0.2-1.4-0.6-1.9-1.1s-0.9-1-1.2-1.7
		s-0.4-1.5-0.4-2.4c0-0.8,0.2-1.5,0.6-2.3s1.1-1.4,2-2s2.2-1.1,3.8-1.5S48,18,50.3,18v-1.2c0-1.4-0.3-2.4-0.9-3.1
		c-0.6-0.7-1.4-1-2.5-1c-0.8,0-1.5,0.1-2,0.3s-1,0.4-1.4,0.6c-0.4,0.2-0.8,0.4-1.1,0.6c-0.3,0.2-0.7,0.3-1.1,0.3
		c-0.3,0-0.6-0.1-0.9-0.3c-0.2-0.2-0.4-0.4-0.6-0.6L39,12c2.4-2.2,5.2-3.2,8.5-3.2c1.2,0,2.3,0.2,3.2,0.6c0.9,0.4,1.7,0.9,2.4,1.6
		c0.7,0.7,1.1,1.5,1.5,2.5c0.3,1,0.5,2,0.5,3.2C55.1,16.7,55.1,29.7,55.1,29.7z M45.6,26.6c0.5,0,1,0,1.4-0.1s0.8-0.2,1.2-0.4
		c0.4-0.2,0.7-0.4,1.1-0.7c0.4-0.3,0.7-0.6,1.1-1V21c-1.4,0-2.6,0.1-3.6,0.3c-1,0.2-1.7,0.4-2.3,0.7c-0.6,0.3-1,0.6-1.2,1
		s-0.4,0.8-0.4,1.2c0,0.9,0.3,1.5,0.8,1.9C44.1,26.4,44.7,26.6,45.6,26.6z"/>
	<path class="st0" d="M64.7,30c-1.8,0-3.1-0.5-4.1-1.5s-1.4-2.4-1.4-4.2V12.9h-2.1c-0.3,0-0.5-0.1-0.7-0.3s-0.3-0.4-0.3-0.8v-2
		l3.3-0.5l1-5.6c0.1-0.3,0.2-0.5,0.4-0.6C61,3,61.3,2.9,61.6,2.9h2.6v6.4h5.4v3.5h-5.4V24c0,0.6,0.2,1.1,0.5,1.5S65.4,26,66,26
		c0.3,0,0.6,0,0.8-0.1c0.2-0.1,0.4-0.1,0.5-0.2c0.2-0.1,0.3-0.2,0.4-0.2c0.1-0.1,0.2-0.1,0.4-0.1c0.1,0,0.3,0,0.4,0.1
		s0.2,0.2,0.3,0.3l1.5,2.4c-0.7,0.6-1.5,1.1-2.5,1.4S65.7,30,64.7,30z"/>
	<path class="st0" d="M73,1.9l19.8,26.9c0-0.1,0-0.1,0-0.2s0-0.1,0-0.2V1.7h0.4v27.9h-0.1c-0.1,0-0.2,0-0.2-0.1L73,2.5
		c0,0.1,0,0.2,0,0.2v0.2v26.7h-0.4V1.7h0.2C72.9,1.7,73,1.8,73,1.9z"/>
	<path class="st0" d="M109.4,29.6c1.1,0,2.2-0.1,3.1-0.2s1.8-0.3,2.6-0.6c0.8-0.2,1.6-0.5,2.3-0.9c0.7-0.4,1.4-0.8,2.1-1.2V18h-6.3
		c-0.2,0-0.2-0.1-0.2-0.2v-0.2h6.9v9.3c-0.7,0.5-1.4,0.9-2.1,1.3s-1.5,0.7-2.4,1c-0.8,0.3-1.8,0.5-2.8,0.6s-2.1,0.2-3.3,0.2
		c-2,0-3.8-0.3-5.5-1s-3-1.6-4.2-2.8c-1.2-1.2-2.1-2.7-2.7-4.5s-1-3.7-1-6c0-2.2,0.3-4.2,1-5.9c0.6-1.8,1.6-3.3,2.8-4.5
		s2.6-2.2,4.3-2.9c1.7-0.7,3.6-1,5.7-1c1,0,2,0.1,2.9,0.2s1.7,0.3,2.4,0.6s1.4,0.6,2.1,1s1.3,0.9,1.9,1.4l0,0.1
		c-0.1,0.1-0.1,0.1-0.2,0.1s-0.3-0.2-0.7-0.5c-0.3-0.3-0.9-0.7-1.6-1c-0.7-0.4-1.6-0.7-2.7-1s-2.5-0.5-4.1-0.5c-2,0-3.9,0.3-5.5,0.9
		s-3,1.5-4.2,2.7s-2,2.7-2.7,4.4c-0.6,1.7-0.9,3.7-0.9,5.8c0,2.2,0.3,4.1,0.9,5.8s1.5,3.2,2.6,4.4c1.1,1.2,2.5,2.1,4.1,2.7
		C105.7,29.3,107.5,29.6,109.4,29.6z"/>
	<path class="st0" d="M139.5,1.7v0.4h-15.8v13.1h13.4v0.4h-13.4v13.5h15.9v0.4h-16.3V1.7H139.5z"/>
	<path class="st0" d="M142.5,1.9l19.8,26.9c0-0.1,0-0.1,0-0.2s0-0.1,0-0.2V1.7h0.4v27.9h-0.1c-0.1,0-0.2,0-0.2-0.1l-19.9-27
		c0,0.1,0,0.2,0,0.2v0.2v26.7h-0.4V1.7h0.2C142.4,1.7,142.5,1.8,142.5,1.9z"/>
	<path class="st0" d="M15.8,24.8c-0.2-0.3-0.5-0.5-0.9-0.5c-0.3,0-0.6,0.1-0.8,0.3c-0.2,0.2-0.5,0.4-0.9,0.6
		c-0.3,0.2-0.7,0.4-1.2,0.6s-1.1,0.3-1.9,0.3c-0.8,0-1.5-0.1-2.1-0.4c-0.5-0.2-0.8-0.5-1.2-0.9l-4.2,0.9l2.7-3.9
		C5.1,21.1,5,20.3,5,19.4c0-1.1,0.1-2,0.3-2.8c0.2-0.8,0.5-1.5,1-2.1c0.4-0.6,1-1,1.6-1.3c0.7-0.3,1.4-0.5,2.3-0.5
		c0.7,0,1.2,0.1,1.7,0.2c0.5,0.2,0.9,0.3,1.2,0.5s0.6,0.4,0.9,0.5c0.2,0.2,0.5,0.2,0.7,0.2c0.3,0,0.5-0.1,0.6-0.2
		c0.1-0.1,0.3-0.3,0.4-0.4l1.3-1.8c-0.9-0.9-2-1.6-3.1-2.1c-1.2-0.5-2.5-0.7-4-0.7c-1.6,0-3,0.3-4.3,0.8c-1.2,0.5-2.3,1.3-3.1,2.2
		s-1.5,2-1.9,3.3C0.2,16.5,0,17.9,0,19.4c0,1.7,0.2,3.2,0.7,4.5s1.1,2.4,2,3.3c0.8,0.9,1.8,1.6,2.9,2.1C6.7,29.7,7.9,30,9.2,30
		c0.7,0,1.4-0.1,2.2-0.2c0.7-0.1,1.4-0.3,2.1-0.5c0.7-0.3,1.3-0.6,2-1c0.6-0.4,1.2-1,1.8-1.6L15.8,24.8z"/>
</g>
</svg>
